<?xml version="1.0" encoding="UTF-8"?>
<svg width="521px" height="17px" viewBox="0 0 521 17" version="1.1" xmlns="http://www.w3.org/2000/svg" xmlns:xlink="http://www.w3.org/1999/xlink">
    <!-- Generator: Sketch 40.3 (33839) - http://www.bohemiancoding.com/sketch -->
    <title>Untitled</title>
    <desc>Created with Sketch.</desc>
    <defs>
        <path d="M99.1537736,15.8426923 L99.1537736,6.36519231 L75.0679245,1.59538462 L75.0679245,15.8426923 L99.1537736,15.8426923 L99.1537736,15.8426923 Z M0,15.8426923 L0,6.36519231 L24.0867925,1.59538462 L24.0867925,15.8426923 L0,15.8426923 L0,15.8426923 Z M47.9933962,0.00523076923 L24.0867925,1.59407692 L24.0867925,16.4677692 L47.9933962,16.4677692 L47.9933962,16.4703846 L51.1924528,16.4703846 L51.1924528,16.4677692 L75.0688679,16.4677692 L75.0688679,1.59407692 L51.1915094,0.00784615385 L51.1915094,0 L47.9924528,0 L47.9924528,0.00523076923 L47.9933962,0.00523076923 Z" id="path-1"></path>
        <polygon id="path-3" points="0.0433962264 14.5676923 0.0433962264 1.41034615 22.6849057 -8.8817842e-16 22.6849057 14.5676923"></polygon>
        <polygon id="path-5" points="22.6849057 14.5676923 22.6849057 1.41034615 0.0433962264 -8.8817842e-16 0.0433962264 14.5676923"></polygon>
        <polygon id="path-7" points="0.0433962264 12.6035385 0.0433962264 4.21992308 22.6849057 0 22.6849057 12.6035385"></polygon>
        <polygon id="path-9" points="22.6849057 12.6035385 22.6849057 4.21992308 0.0433962264 0 0.0433962264 12.6035385"></polygon>
        <path d="M99.1537736,15.8426923 L99.1537736,6.36519231 L75.0679245,1.59538462 L75.0679245,15.8426923 L99.1537736,15.8426923 L99.1537736,15.8426923 Z M0,15.8426923 L0,6.36519231 L24.0867925,1.59538462 L24.0867925,15.8426923 L0,15.8426923 L0,15.8426923 Z M47.9933962,0.00523076923 L24.0867925,1.59407692 L24.0867925,16.4677692 L47.9933962,16.4677692 L47.9933962,16.4703846 L51.1924528,16.4703846 L51.1924528,16.4677692 L75.0688679,16.4677692 L75.0688679,1.59407692 L51.1915094,0.00784615385 L51.1915094,0 L47.9924528,0 L47.9924528,0.00523076923 L47.9933962,0.00523076923 Z" id="path-11"></path>
        <polygon id="path-13" points="0.0433962264 14.5676923 0.0433962264 1.41034615 22.6849057 -8.8817842e-16 22.6849057 14.5676923"></polygon>
        <polygon id="path-15" points="22.6849057 14.5676923 22.6849057 1.41034615 0.0433962264 -8.8817842e-16 0.0433962264 14.5676923"></polygon>
        <polygon id="path-17" points="0.0433962264 12.6035385 0.0433962264 4.21992308 22.6849057 0 22.6849057 12.6035385"></polygon>
        <polygon id="path-19" points="22.6849057 12.6035385 22.6849057 4.21992308 0.0433962264 0 0.0433962264 12.6035385"></polygon>
        <path d="M99.1537736,15.8426923 L99.1537736,6.36519231 L75.0679245,1.59538462 L75.0679245,15.8426923 L99.1537736,15.8426923 L99.1537736,15.8426923 Z M0,15.8426923 L0,6.36519231 L24.0867925,1.59538462 L24.0867925,15.8426923 L0,15.8426923 L0,15.8426923 Z M47.9933962,0.00523076923 L24.0867925,1.59407692 L24.0867925,16.4677692 L47.9933962,16.4677692 L47.9933962,16.4703846 L51.1924528,16.4703846 L51.1924528,16.4677692 L75.0688679,16.4677692 L75.0688679,1.59407692 L51.1915094,0.00784615385 L51.1915094,0 L47.9924528,0 L47.9924528,0.00523076923 L47.9933962,0.00523076923 Z" id="path-21"></path>
        <polygon id="path-23" points="0.0433962264 14.5676923 0.0433962264 1.41034615 22.6849057 -8.8817842e-16 22.6849057 14.5676923"></polygon>
        <polygon id="path-25" points="22.6849057 14.5676923 22.6849057 1.41034615 0.0433962264 -8.8817842e-16 0.0433962264 14.5676923"></polygon>
        <polygon id="path-27" points="0.0433962264 12.6035385 0.0433962264 4.21992308 22.6849057 0 22.6849057 12.6035385"></polygon>
        <polygon id="path-29" points="22.6849057 12.6035385 22.6849057 4.21992308 0.0433962264 0 0.0433962264 12.6035385"></polygon>
        <path d="M99.1537736,15.8426923 L99.1537736,6.36519231 L75.0679245,1.59538462 L75.0679245,15.8426923 L99.1537736,15.8426923 L99.1537736,15.8426923 Z M0,15.8426923 L0,6.36519231 L24.0867925,1.59538462 L24.0867925,15.8426923 L0,15.8426923 L0,15.8426923 Z M47.9933962,0.00523076923 L24.0867925,1.59407692 L24.0867925,16.4677692 L47.9933962,16.4677692 L47.9933962,16.4703846 L51.1924528,16.4703846 L51.1924528,16.4677692 L75.0688679,16.4677692 L75.0688679,1.59407692 L51.1915094,0.00784615385 L51.1915094,0 L47.9924528,0 L47.9924528,0.00523076923 L47.9933962,0.00523076923 Z" id="path-31"></path>
        <polygon id="path-33" points="0.0433962264 14.5676923 0.0433962264 1.41034615 22.6849057 -8.8817842e-16 22.6849057 14.5676923"></polygon>
        <polygon id="path-35" points="22.6849057 14.5676923 22.6849057 1.41034615 0.0433962264 -8.8817842e-16 0.0433962264 14.5676923"></polygon>
        <polygon id="path-37" points="0.0433962264 12.6035385 0.0433962264 4.21992308 22.6849057 0 22.6849057 12.6035385"></polygon>
        <polygon id="path-39" points="22.6849057 12.6035385 22.6849057 4.21992308 0.0433962264 0 0.0433962264 12.6035385"></polygon>
        <path d="M99.1537736,15.8426923 L99.1537736,6.36519231 L75.0679245,1.59538462 L75.0679245,15.8426923 L99.1537736,15.8426923 L99.1537736,15.8426923 Z M0,15.8426923 L0,6.36519231 L24.0867925,1.59538462 L24.0867925,15.8426923 L0,15.8426923 L0,15.8426923 Z M47.9933962,0.00523076923 L24.0867925,1.59407692 L24.0867925,16.4677692 L47.9933962,16.4677692 L47.9933962,16.4703846 L51.1924528,16.4703846 L51.1924528,16.4677692 L75.0688679,16.4677692 L75.0688679,1.59407692 L51.1915094,0.00784615385 L51.1915094,0 L47.9924528,0 L47.9924528,0.00523076923 L47.9933962,0.00523076923 Z" id="path-41"></path>
        <polygon id="path-43" points="0.0433962264 14.5676923 0.0433962264 1.41034615 22.6849057 -8.8817842e-16 22.6849057 14.5676923"></polygon>
        <polygon id="path-45" points="22.6849057 14.5676923 22.6849057 1.41034615 0.0433962264 -8.8817842e-16 0.0433962264 14.5676923"></polygon>
        <polygon id="path-47" points="0.0433962264 12.6035385 0.0433962264 4.21992308 22.6849057 0 22.6849057 12.6035385"></polygon>
        <polygon id="path-49" points="22.6849057 12.6035385 22.6849057 4.21992308 0.0433962264 0 0.0433962264 12.6035385"></polygon>
    </defs>
    <g id="Page-1" stroke="none" stroke-width="1" fill="none" fill-rule="evenodd">
        <g id="skill-strength-sprite" transform="translate(416.000000, 0.000000)">
            <g id="Clipped">
                <mask id="mask-2" fill="white">
                    <use xlink:href="#path-1"></use>
                </mask>
                <g id="SVGID_1_"></g>
                <rect id="Rectangle-path" fill="#FFFFFF" mask="url(#mask-2)" x="-4.71698113" y="-3.26923077" width="108.587736" height="23.0088462"></rect>
            </g>
            <g id="Clipped" transform="translate(25.471698, 1.961538)">
                <mask id="mask-4" fill="white">
                    <use xlink:href="#path-3"></use>
                </mask>
                <g id="SVGID_3_"></g>
                <rect id="Rectangle-path" fill="#FFD000" mask="url(#mask-4)" x="-4.67358491" y="-3.26923077" width="32.0754717" height="21.1061538"></rect>
            </g>
            <g id="Clipped" transform="translate(50.943396, 1.961538)">
                <mask id="mask-6" fill="white">
                    <use xlink:href="#path-5"></use>
                </mask>
                <g id="SVGID_5_"></g>
                <rect id="Rectangle-path" fill="#FFD000" mask="url(#mask-6)" x="-4.67358491" y="-3.26923077" width="32.0754717" height="21.1061538"></rect>
            </g>
            <g id="Clipped" transform="translate(0.000000, 3.923077)">
                <mask id="mask-8" fill="white">
                    <use xlink:href="#path-7"></use>
                </mask>
                <g id="SVGID_7_"></g>
                <rect id="Rectangle-path" fill="#FFD000" mask="url(#mask-8)" x="-4.67358491" y="-3.26923077" width="32.0754717" height="19.142"></rect>
            </g>
            <g id="Clipped" transform="translate(76.415094, 3.923077)">
                <mask id="mask-10" fill="white">
                    <use xlink:href="#path-9"></use>
                </mask>
                <g id="SVGID_9_"></g>
                <rect id="Rectangle-path" fill="#FFD000" mask="url(#mask-10)" x="-4.67358491" y="-3.26923077" width="32.0754717" height="19.142"></rect>
            </g>
        </g>
        <g id="skill-strength-sprite" transform="translate(313.000000, 0.000000)">
            <g id="Clipped">
                <mask id="mask-12" fill="white">
                    <use xlink:href="#path-11"></use>
                </mask>
                <g id="SVGID_1_"></g>
                <rect id="Rectangle-path" fill="#FFFFFF" mask="url(#mask-12)" x="-4.71698113" y="-3.26923077" width="108.587736" height="23.0088462"></rect>
            </g>
            <g id="Clipped" transform="translate(25.471698, 1.961538)">
                <mask id="mask-14" fill="white">
                    <use xlink:href="#path-13"></use>
                </mask>
                <g id="SVGID_3_"></g>
                <rect id="Rectangle-path" fill="#FFD000" mask="url(#mask-14)" x="-4.67358491" y="-3.26923077" width="32.0754717" height="21.1061538"></rect>
            </g>
            <g id="Clipped" transform="translate(50.943396, 1.961538)">
                <mask id="mask-16" fill="white">
                    <use xlink:href="#path-15"></use>
                </mask>
                <g id="SVGID_5_"></g>
                <rect id="Rectangle-path" fill="#FFD000" mask="url(#mask-16)" x="-4.67358491" y="-3.26923077" width="32.0754717" height="21.1061538"></rect>
            </g>
            <g id="Clipped" transform="translate(0.000000, 3.923077)">
                <mask id="mask-18" fill="white">
                    <use xlink:href="#path-17"></use>
                </mask>
                <g id="SVGID_7_"></g>
                <rect id="Rectangle-path" fill="#FFD000" mask="url(#mask-18)" x="-4.67358491" y="-3.26923077" width="32.0754717" height="19.142"></rect>
            </g>
            <g id="Clipped" transform="translate(76.415094, 3.923077)">
                <mask id="mask-20" fill="white">
                    <use xlink:href="#path-19"></use>
                </mask>
                <g id="SVGID_9_"></g>
                <rect id="Rectangle-path" fill="#C4C2C5" mask="url(#mask-20)" x="-4.67358491" y="-3.26923077" width="32.0754717" height="19.142"></rect>
            </g>
        </g>
        <g id="skill-strength-sprite" transform="translate(210.000000, 0.000000)">
            <g id="Clipped">
                <mask id="mask-22" fill="white">
                    <use xlink:href="#path-21"></use>
                </mask>
                <g id="SVGID_1_"></g>
                <rect id="Rectangle-path" fill="#FFFFFF" mask="url(#mask-22)" x="-4.71698113" y="-3.26923077" width="108.587736" height="23.0088462"></rect>
            </g>
            <g id="Clipped" transform="translate(25.471698, 1.961538)">
                <mask id="mask-24" fill="white">
                    <use xlink:href="#path-23"></use>
                </mask>
                <g id="SVGID_3_"></g>
                <rect id="Rectangle-path" fill="#FFD000" mask="url(#mask-24)" x="-4.67358491" y="-3.26923077" width="32.0754717" height="21.1061538"></rect>
            </g>
            <g id="Clipped" transform="translate(50.943396, 1.961538)">
                <mask id="mask-26" fill="white">
                    <use xlink:href="#path-25"></use>
                </mask>
                <g id="SVGID_5_"></g>
                <rect id="Rectangle-path" fill="#C4C2C5" mask="url(#mask-26)" x="-4.67358491" y="-3.26923077" width="32.0754717" height="21.1061538"></rect>
            </g>
            <g id="Clipped" transform="translate(0.000000, 3.923077)">
                <mask id="mask-28" fill="white">
                    <use xlink:href="#path-27"></use>
                </mask>
                <g id="SVGID_7_"></g>
                <rect id="Rectangle-path" fill="#FFD000" mask="url(#mask-28)" x="-4.67358491" y="-3.26923077" width="32.0754717" height="19.142"></rect>
            </g>
            <g id="Clipped" transform="translate(76.415094, 3.923077)">
                <mask id="mask-30" fill="white">
                    <use xlink:href="#path-29"></use>
                </mask>
                <g id="SVGID_9_"></g>
                <rect id="Rectangle-path" fill="#C4C2C5" mask="url(#mask-30)" x="-4.67358491" y="-3.26923077" width="32.0754717" height="19.142"></rect>
            </g>
        </g>
        <g id="skill-strength-sprite" transform="translate(107.000000, 0.000000)">
            <g id="Clipped">
                <mask id="mask-32" fill="white">
                    <use xlink:href="#path-31"></use>
                </mask>
                <g id="SVGID_1_"></g>
                <rect id="Rectangle-path" fill="#FFFFFF" mask="url(#mask-32)" x="-4.71698113" y="-3.26923077" width="108.587736" height="23.0088462"></rect>
            </g>
            <g id="Clipped" transform="translate(25.471698, 1.961538)">
                <mask id="mask-34" fill="white">
                    <use xlink:href="#path-33"></use>
                </mask>
                <g id="SVGID_3_"></g>
                <rect id="Rectangle-path" fill="#C4C2C5" mask="url(#mask-34)" x="-4.67358491" y="-3.26923077" width="32.0754717" height="21.1061538"></rect>
            </g>
            <g id="Clipped" transform="translate(50.943396, 1.961538)">
                <mask id="mask-36" fill="white">
                    <use xlink:href="#path-35"></use>
                </mask>
                <g id="SVGID_5_"></g>
                <rect id="Rectangle-path" fill="#C4C2C5" mask="url(#mask-36)" x="-4.67358491" y="-3.26923077" width="32.0754717" height="21.1061538"></rect>
            </g>
            <g id="Clipped" transform="translate(0.000000, 3.923077)">
                <mask id="mask-38" fill="white">
                    <use xlink:href="#path-37"></use>
                </mask>
                <g id="SVGID_7_"></g>
                <rect id="Rectangle-path" fill="#FFD000" mask="url(#mask-38)" x="-4.67358491" y="-3.26923077" width="32.0754717" height="19.142"></rect>
            </g>
            <g id="Clipped" transform="translate(76.415094, 3.923077)">
                <mask id="mask-40" fill="white">
                    <use xlink:href="#path-39"></use>
                </mask>
                <g id="SVGID_9_"></g>
                <rect id="Rectangle-path" fill="#C4C2C5" mask="url(#mask-40)" x="-4.67358491" y="-3.26923077" width="32.0754717" height="19.142"></rect>
            </g>
        </g>
        <g id="skill-strength-sprite" transform="translate(5.000000, 0.000000)">
            <g id="Clipped">
                <mask id="mask-42" fill="white">
                    <use xlink:href="#path-41"></use>
                </mask>
                <g id="SVGID_1_"></g>
                <rect id="Rectangle-path" fill="#FFFFFF" mask="url(#mask-42)" x="-4.71698113" y="-3.26923077" width="108.587736" height="23.0088462"></rect>
            </g>
            <g id="Clipped" transform="translate(25.471698, 1.961538)">
                <mask id="mask-44" fill="white">
                    <use xlink:href="#path-43"></use>
                </mask>
                <g id="SVGID_3_"></g>
                <rect id="Rectangle-path" fill="#C4C2C5" mask="url(#mask-44)" x="-4.67358491" y="-3.26923077" width="32.0754717" height="21.1061538"></rect>
            </g>
            <g id="Clipped" transform="translate(50.943396, 1.961538)">
                <mask id="mask-46" fill="white">
                    <use xlink:href="#path-45"></use>
                </mask>
                <g id="SVGID_5_"></g>
                <rect id="Rectangle-path" fill="#C4C2C5" mask="url(#mask-46)" x="-4.67358491" y="-3.26923077" width="32.0754717" height="21.1061538"></rect>
            </g>
            <g id="Clipped" transform="translate(0.000000, 3.923077)">
                <mask id="mask-48" fill="white">
                    <use xlink:href="#path-47"></use>
                </mask>
                <g id="SVGID_7_"></g>
                <rect id="Rectangle-path" fill="#C4C2C5" mask="url(#mask-48)" x="-4.67358491" y="-3.26923077" width="32.0754717" height="19.142"></rect>
            </g>
            <g id="Clipped" transform="translate(76.415094, 3.923077)">
                <mask id="mask-50" fill="white">
                    <use xlink:href="#path-49"></use>
                </mask>
                <g id="SVGID_9_"></g>
                <rect id="Rectangle-path" fill="#C4C2C5" mask="url(#mask-50)" x="-4.67358491" y="-3.26923077" width="32.0754717" height="19.142"></rect>
            </g>
        </g>
    </g>
</svg>