<?xml version="1.0" encoding="UTF-8"?>
<svg width="424px" height="21px" viewBox="0 0 424 21" version="1.1" xmlns="http://www.w3.org/2000/svg" xmlns:xlink="http://www.w3.org/1999/xlink">
    <!-- Generator: Sketch 40.3 (33839) - http://www.bohemiancoding.com/sketch -->
    <title>Untitled</title>
    <desc>Created with Sketch.</desc>
    <defs>
        <path d="M79.3230189,18.6384615 L79.3230189,7.48846154 L60.0543396,1.87692308 L60.0543396,18.6384615 L79.3230189,18.6384615 L79.3230189,18.6384615 Z M0,18.6384615 L0,7.48846154 L19.269434,1.87692308 L19.269434,18.6384615 L0,18.6384615 L0,18.6384615 Z M38.394717,0.00615384615 L19.269434,1.87538462 L19.269434,19.3738462 L38.394717,19.3738462 L38.394717,19.3769231 L40.9539623,19.3769231 L40.9539623,19.3738462 L60.0550943,19.3738462 L60.0550943,1.87538462 L40.9532075,0.00923076923 L40.9532075,0 L38.3939623,0 L38.3939623,0.00615384615 L38.394717,0.00615384615 Z" id="path-1"></path>
        <polygon id="path-3" points="0.0347169811 17.1384615 0.0347169811 1.65923077 18.1479245 -1.04491579e-15 18.1479245 17.1384615"></polygon>
        <polygon id="path-5" points="18.1479245 17.1384615 18.1479245 1.65923077 0.0347169811 -1.04491579e-15 0.0347169811 17.1384615"></polygon>
        <polygon id="path-7" points="0.0347169811 14.8276923 0.0347169811 4.96461538 18.1479245 0 18.1479245 14.8276923"></polygon>
        <polygon id="path-9" points="18.1479245 14.8276923 18.1479245 4.96461538 0.0347169811 0 0.0347169811 14.8276923"></polygon>
        <path d="M79.3230189,18.6384615 L79.3230189,7.48846154 L60.0543396,1.87692308 L60.0543396,18.6384615 L79.3230189,18.6384615 L79.3230189,18.6384615 Z M0,18.6384615 L0,7.48846154 L19.269434,1.87692308 L19.269434,18.6384615 L0,18.6384615 L0,18.6384615 Z M38.394717,0.00615384615 L19.269434,1.87538462 L19.269434,19.3738462 L38.394717,19.3738462 L38.394717,19.3769231 L40.9539623,19.3769231 L40.9539623,19.3738462 L60.0550943,19.3738462 L60.0550943,1.87538462 L40.9532075,0.00923076923 L40.9532075,0 L38.3939623,0 L38.3939623,0.00615384615 L38.394717,0.00615384615 Z" id="path-11"></path>
        <polygon id="path-13" points="0.0347169811 17.1384615 0.0347169811 1.65923077 18.1479245 -1.04491579e-15 18.1479245 17.1384615"></polygon>
        <polygon id="path-15" points="18.1479245 17.1384615 18.1479245 1.65923077 0.0347169811 -1.04491579e-15 0.0347169811 17.1384615"></polygon>
        <polygon id="path-17" points="0.0347169811 14.8276923 0.0347169811 4.96461538 18.1479245 0 18.1479245 14.8276923"></polygon>
        <polygon id="path-19" points="18.1479245 14.8276923 18.1479245 4.96461538 0.0347169811 0 0.0347169811 14.8276923"></polygon>
        <path d="M79.3230189,18.6384615 L79.3230189,7.48846154 L60.0543396,1.87692308 L60.0543396,18.6384615 L79.3230189,18.6384615 L79.3230189,18.6384615 Z M0,18.6384615 L0,7.48846154 L19.269434,1.87692308 L19.269434,18.6384615 L0,18.6384615 L0,18.6384615 Z M38.394717,0.00615384615 L19.269434,1.87538462 L19.269434,19.3738462 L38.394717,19.3738462 L38.394717,19.3769231 L40.9539623,19.3769231 L40.9539623,19.3738462 L60.0550943,19.3738462 L60.0550943,1.87538462 L40.9532075,0.00923076923 L40.9532075,0 L38.3939623,0 L38.3939623,0.00615384615 L38.394717,0.00615384615 Z" id="path-21"></path>
        <polygon id="path-23" points="0.0347169811 17.1384615 0.0347169811 1.65923077 18.1479245 -1.04491579e-15 18.1479245 17.1384615"></polygon>
        <polygon id="path-25" points="18.1479245 17.1384615 18.1479245 1.65923077 0.0347169811 -1.04491579e-15 0.0347169811 17.1384615"></polygon>
        <polygon id="path-27" points="0.0347169811 14.8276923 0.0347169811 4.96461538 18.1479245 0 18.1479245 14.8276923"></polygon>
        <polygon id="path-29" points="18.1479245 14.8276923 18.1479245 4.96461538 0.0347169811 0 0.0347169811 14.8276923"></polygon>
        <path d="M79.3230189,18.6384615 L79.3230189,7.48846154 L60.0543396,1.87692308 L60.0543396,18.6384615 L79.3230189,18.6384615 L79.3230189,18.6384615 Z M0,18.6384615 L0,7.48846154 L19.269434,1.87692308 L19.269434,18.6384615 L0,18.6384615 L0,18.6384615 Z M38.394717,0.00615384615 L19.269434,1.87538462 L19.269434,19.3738462 L38.394717,19.3738462 L38.394717,19.3769231 L40.9539623,19.3769231 L40.9539623,19.3738462 L60.0550943,19.3738462 L60.0550943,1.87538462 L40.9532075,0.00923076923 L40.9532075,0 L38.3939623,0 L38.3939623,0.00615384615 L38.394717,0.00615384615 Z" id="path-31"></path>
        <polygon id="path-33" points="0.0347169811 17.1384615 0.0347169811 1.65923077 18.1479245 -1.04491579e-15 18.1479245 17.1384615"></polygon>
        <polygon id="path-35" points="18.1479245 17.1384615 18.1479245 1.65923077 0.0347169811 -1.04491579e-15 0.0347169811 17.1384615"></polygon>
        <polygon id="path-37" points="0.0347169811 14.8276923 0.0347169811 4.96461538 18.1479245 0 18.1479245 14.8276923"></polygon>
        <polygon id="path-39" points="18.1479245 14.8276923 18.1479245 4.96461538 0.0347169811 0 0.0347169811 14.8276923"></polygon>
        <path d="M79.3230189,18.6384615 L79.3230189,7.48846154 L60.0543396,1.87692308 L60.0543396,18.6384615 L79.3230189,18.6384615 L79.3230189,18.6384615 Z M0,18.6384615 L0,7.48846154 L19.269434,1.87692308 L19.269434,18.6384615 L0,18.6384615 L0,18.6384615 Z M38.394717,0.00615384615 L19.269434,1.87538462 L19.269434,19.3738462 L38.394717,19.3738462 L38.394717,19.3769231 L40.9539623,19.3769231 L40.9539623,19.3738462 L60.0550943,19.3738462 L60.0550943,1.87538462 L40.9532075,0.00923076923 L40.9532075,0 L38.3939623,0 L38.3939623,0.00615384615 L38.394717,0.00615384615 Z" id="path-41"></path>
        <polygon id="path-43" points="0.0347169811 17.1384615 0.0347169811 1.65923077 18.1479245 -1.42108547e-15 18.1479245 17.1384615"></polygon>
        <polygon id="path-45" points="18.1479245 17.1384615 18.1479245 1.65923077 0.0347169811 -1.42108547e-15 0.0347169811 17.1384615"></polygon>
        <polygon id="path-47" points="0.0347169811 14.8276923 0.0347169811 4.96461538 18.1479245 0 18.1479245 14.8276923"></polygon>
        <polygon id="path-49" points="18.1479245 14.8276923 18.1479245 4.96461538 0.0347169811 0 0.0347169811 14.8276923"></polygon>
    </defs>
    <g id="Page-1" stroke="none" stroke-width="1" fill="none" fill-rule="evenodd">
        <g id="skill-strength-sprite" transform="translate(340.000000, -1.000000)">
            <g id="Clipped">
                <mask id="mask-2" fill="white">
                    <use xlink:href="#path-1"></use>
                </mask>
                <g id="SVGID_1_"></g>
                <rect id="Rectangle-path" fill="#FFFFFF" mask="url(#mask-2)" x="-3.77358491" y="-3.84615385" width="86.8701887" height="27.0692308"></rect>
            </g>
            <g id="Clipped" transform="translate(20.377358, 2.307692)">
                <mask id="mask-4" fill="white">
                    <use xlink:href="#path-3"></use>
                </mask>
                <g id="SVGID_3_"></g>
                <rect id="Rectangle-path" fill="#FFD000" mask="url(#mask-4)" x="-3.73886792" y="-3.84615385" width="25.6603774" height="24.8307692"></rect>
            </g>
            <g id="Clipped" transform="translate(40.754717, 2.307692)">
                <mask id="mask-6" fill="white">
                    <use xlink:href="#path-5"></use>
                </mask>
                <g id="SVGID_5_"></g>
                <rect id="Rectangle-path" fill="#FFD000" mask="url(#mask-6)" x="-3.73886792" y="-3.84615385" width="25.6603774" height="24.8307692"></rect>
            </g>
            <g id="Clipped" transform="translate(0.000000, 4.615385)">
                <mask id="mask-8" fill="white">
                    <use xlink:href="#path-7"></use>
                </mask>
                <g id="SVGID_7_"></g>
                <rect id="Rectangle-path" fill="#FFD000" mask="url(#mask-8)" x="-3.73886792" y="-3.84615385" width="25.6603774" height="22.52"></rect>
            </g>
            <g id="Clipped" transform="translate(61.132075, 4.615385)">
                <mask id="mask-10" fill="white">
                    <use xlink:href="#path-9"></use>
                </mask>
                <g id="SVGID_9_"></g>
                <rect id="Rectangle-path" fill="#FFD000" mask="url(#mask-10)" x="-3.73886792" y="-3.84615385" width="25.6603774" height="22.52"></rect>
            </g>
        </g>
        <g id="skill-strength-sprite" transform="translate(256.000000, -1.000000)">
            <g id="Clipped">
                <mask id="mask-12" fill="white">
                    <use xlink:href="#path-11"></use>
                </mask>
                <g id="SVGID_1_"></g>
                <rect id="Rectangle-path" fill="#FFFFFF" mask="url(#mask-12)" x="-3.77358491" y="-3.84615385" width="86.8701887" height="27.0692308"></rect>
            </g>
            <g id="Clipped" transform="translate(20.377358, 2.307692)">
                <mask id="mask-14" fill="white">
                    <use xlink:href="#path-13"></use>
                </mask>
                <g id="SVGID_3_"></g>
                <rect id="Rectangle-path" fill="#FFD000" mask="url(#mask-14)" x="-3.73886792" y="-3.84615385" width="25.6603774" height="24.8307692"></rect>
            </g>
            <g id="Clipped" transform="translate(40.754717, 2.307692)">
                <mask id="mask-16" fill="white">
                    <use xlink:href="#path-15"></use>
                </mask>
                <g id="SVGID_5_"></g>
                <rect id="Rectangle-path" fill="#FFD000" mask="url(#mask-16)" x="-3.73886792" y="-3.84615385" width="25.6603774" height="24.8307692"></rect>
            </g>
            <g id="Clipped" transform="translate(0.000000, 4.615385)">
                <mask id="mask-18" fill="white">
                    <use xlink:href="#path-17"></use>
                </mask>
                <g id="SVGID_7_"></g>
                <rect id="Rectangle-path" fill="#FFD000" mask="url(#mask-18)" x="-3.73886792" y="-3.84615385" width="25.6603774" height="22.52"></rect>
            </g>
            <g id="Clipped" transform="translate(61.132075, 4.615385)">
                <mask id="mask-20" fill="white">
                    <use xlink:href="#path-19"></use>
                </mask>
                <g id="SVGID_9_"></g>
                <rect id="Rectangle-path" fill="#C4C2C5" mask="url(#mask-20)" x="-3.73886792" y="-3.84615385" width="25.6603774" height="22.52"></rect>
            </g>
        </g>
        <g id="skill-strength-sprite" transform="translate(172.000000, -1.000000)">
            <g id="Clipped">
                <mask id="mask-22" fill="white">
                    <use xlink:href="#path-21"></use>
                </mask>
                <g id="SVGID_1_"></g>
                <rect id="Rectangle-path" fill="#FFFFFF" mask="url(#mask-22)" x="-3.77358491" y="-3.84615385" width="86.8701887" height="27.0692308"></rect>
            </g>
            <g id="Clipped" transform="translate(20.377358, 2.307692)">
                <mask id="mask-24" fill="white">
                    <use xlink:href="#path-23"></use>
                </mask>
                <g id="SVGID_3_"></g>
                <rect id="Rectangle-path" fill="#FFD000" mask="url(#mask-24)" x="-3.73886792" y="-3.84615385" width="25.6603774" height="24.8307692"></rect>
            </g>
            <g id="Clipped" transform="translate(40.754717, 2.307692)">
                <mask id="mask-26" fill="white">
                    <use xlink:href="#path-25"></use>
                </mask>
                <g id="SVGID_5_"></g>
                <rect id="Rectangle-path" fill="#C4C2C5" mask="url(#mask-26)" x="-3.73886792" y="-3.84615385" width="25.6603774" height="24.8307692"></rect>
            </g>
            <g id="Clipped" transform="translate(0.000000, 4.615385)">
                <mask id="mask-28" fill="white">
                    <use xlink:href="#path-27"></use>
                </mask>
                <g id="SVGID_7_"></g>
                <rect id="Rectangle-path" fill="#FFD000" mask="url(#mask-28)" x="-3.73886792" y="-3.84615385" width="25.6603774" height="22.52"></rect>
            </g>
            <g id="Clipped" transform="translate(61.132075, 4.615385)">
                <mask id="mask-30" fill="white">
                    <use xlink:href="#path-29"></use>
                </mask>
                <g id="SVGID_9_"></g>
                <rect id="Rectangle-path" fill="#C4C2C5" mask="url(#mask-30)" x="-3.73886792" y="-3.84615385" width="25.6603774" height="22.52"></rect>
            </g>
        </g>
        <g id="skill-strength-sprite" transform="translate(88.000000, -1.000000)">
            <g id="Clipped">
                <mask id="mask-32" fill="white">
                    <use xlink:href="#path-31"></use>
                </mask>
                <g id="SVGID_1_"></g>
                <rect id="Rectangle-path" fill="#FFFFFF" mask="url(#mask-32)" x="-3.77358491" y="-3.84615385" width="86.8701887" height="27.0692308"></rect>
            </g>
            <g id="Clipped" transform="translate(20.377358, 2.307692)">
                <mask id="mask-34" fill="white">
                    <use xlink:href="#path-33"></use>
                </mask>
                <g id="SVGID_3_"></g>
                <rect id="Rectangle-path" fill="#C4C2C5" mask="url(#mask-34)" x="-3.73886792" y="-3.84615385" width="25.6603774" height="24.8307692"></rect>
            </g>
            <g id="Clipped" transform="translate(40.754717, 2.307692)">
                <mask id="mask-36" fill="white">
                    <use xlink:href="#path-35"></use>
                </mask>
                <g id="SVGID_5_"></g>
                <rect id="Rectangle-path" fill="#C4C2C5" mask="url(#mask-36)" x="-3.73886792" y="-3.84615385" width="25.6603774" height="24.8307692"></rect>
            </g>
            <g id="Clipped" transform="translate(0.000000, 4.615385)">
                <mask id="mask-38" fill="white">
                    <use xlink:href="#path-37"></use>
                </mask>
                <g id="SVGID_7_"></g>
                <rect id="Rectangle-path" fill="#FFD000" mask="url(#mask-38)" x="-3.73886792" y="-3.84615385" width="25.6603774" height="22.52"></rect>
            </g>
            <g id="Clipped" transform="translate(61.132075, 4.615385)">
                <mask id="mask-40" fill="white">
                    <use xlink:href="#path-39"></use>
                </mask>
                <g id="SVGID_9_"></g>
                <rect id="Rectangle-path" fill="#C4C2C5" mask="url(#mask-40)" x="-3.73886792" y="-3.84615385" width="25.6603774" height="22.52"></rect>
            </g>
        </g>
        <g id="skill-strength-sprite" transform="translate(4.000000, -1.000000)">
            <g id="Clipped">
                <mask id="mask-42" fill="white">
                    <use xlink:href="#path-41"></use>
                </mask>
                <g id="SVGID_1_"></g>
                <rect id="Rectangle-path" fill="#FFFFFF" mask="url(#mask-42)" x="-3.77358491" y="-6.24615385" width="86.8701887" height="27.0692308"></rect>
            </g>
            <g id="Clipped" transform="translate(20.377358, 2.307692)">
                <mask id="mask-44" fill="white">
                    <use xlink:href="#path-43"></use>
                </mask>
                <g id="SVGID_3_"></g>
                <rect id="Rectangle-path" fill="#C4C2C5" mask="url(#mask-44)" x="-3.73886792" y="-3.84615385" width="25.6603774" height="24.8307692"></rect>
            </g>
            <g id="Clipped" transform="translate(40.754717, 2.307692)">
                <mask id="mask-46" fill="white">
                    <use xlink:href="#path-45"></use>
                </mask>
                <g id="SVGID_5_"></g>
                <rect id="Rectangle-path" fill="#C4C2C5" mask="url(#mask-46)" x="-3.73886792" y="-3.84615385" width="25.6603774" height="24.8307692"></rect>
            </g>
            <g id="Clipped" transform="translate(0.000000, 4.615385)">
                <mask id="mask-48" fill="white">
                    <use xlink:href="#path-47"></use>
                </mask>
                <g id="SVGID_7_"></g>
                <rect id="Rectangle-path" fill="#C4C2C5" mask="url(#mask-48)" x="-3.73886792" y="-3.84615385" width="25.6603774" height="22.52"></rect>
            </g>
            <g id="Clipped" transform="translate(61.132075, 4.615385)">
                <mask id="mask-50" fill="white">
                    <use xlink:href="#path-49"></use>
                </mask>
                <g id="SVGID_9_"></g>
                <rect id="Rectangle-path" fill="#C4C2C5" mask="url(#mask-50)" x="-3.73886792" y="-3.84615385" width="25.6603774" height="22.52"></rect>
            </g>
        </g>
    </g>
</svg>